<?xml version="1.0" encoding="utf-8"?>
<svg viewBox="5690.81 2195.128 6941.566 7229.009" width="69.416mm" height="72.29mm" xmlns="http://www.w3.org/2000/svg">
  <defs>
    <style type="text/css">
   
    .fil1 {fill:#1C4596}
    .fil0 {fill:#3C893F}
    .fil2 {fill:#1C4596;fill-rule:nonzero}
    .fil3 {fill:#3C893F;fill-rule:nonzero}
   
  </style>
  </defs>
  <g>
    <g transform="matrix(1.153307, 0, 0, 1.137452, -8227.50293, 631.645264)" style="">
      <g fill="#37474F" transform="matrix(123.940666, 0, 0, 123.940666, 12068.717773, 1250.606812)">
        <path d="M38.5,44.6l-4-4l2.1-2.1l4,4c0.6,0.6,0.6,1.5,0,2.1l0,0C40.1,45.1,39.1,45.1,38.5,44.6z" style="fill: rgb(28, 69, 150);"/>
        <path d="M9.5,44.6l4-4l-2.1-2.1l-4,4c-0.6,0.6-0.6,1.5,0,2.1l0,0C7.9,45.1,8.9,45.1,9.5,44.6z" style="fill: rgb(28, 69, 150);"/>
      </g>
      <circle cx="15043.294" cy="4225.182" r="2478.813" style="fill: rgb(60, 137, 63);"/>
      <circle cx="15043.294" cy="4225.182" r="1983.051" style="fill: rgb(255, 255, 255);"/>
      <rect x="14795.412" y="1374.548" width="495.763" height="371.822" style="fill: rgb(28, 69, 150);"/>
      <g fill="#37474F" transform="matrix(123.940666, 0, 0, 123.940666, 12068.717773, 1250.606812)">
        <path d="M44.4,16.2c2.5-3.5,2.1-8.4-1-11.5c-3.1-3.1-8-3.5-11.5-1L44.4,16.2z" style="fill: rgb(28, 69, 150);"/>
        <path d="M3.6,16.2c-2.5-3.5-2.1-8.4,1-11.5c3.1-3.1,8-3.5,11.5-1L3.6,16.2z" style="fill: rgb(28, 69, 150);"/>
      </g>
      <path d="M 19.031 0 L 15.641 0 L 10.418 -15.094 L 5.141 0 L 1.723 0 L 8.777 -20.125 L 12.031 -20.125 Z M 12.223 -6.398 L 13.016 -4.184 L 7.793 -4.184 L 8.559 -6.398 Z" transform="matrix(24.372383, 0, 0, 24.712109, 12068.176758, 7557.003906)" style="fill: rgb(28, 69, 150); white-space: pre;"/>
      <path d="M 26.633 -20.152 L 26.633 -2.488 L 35.902 -2.488 L 35.902 0 L 23.297 0 L 23.297 -20.152 Z" transform="matrix(24.372383, 0, 0, 24.712109, 12068.176758, 7557.003906)" style="fill: rgb(28, 69, 150); white-space: pre;"/>
      <path d="M 55.754 0 L 52.363 0 L 47.14 -15.094 L 41.863 0 L 38.445 0 L 45.5 -20.125 L 48.754 -20.125 Z M 48.945 -6.398 L 49.738 -4.184 L 44.515 -4.184 L 45.281 -6.398 Z" transform="matrix(24.372383, 0, 0, 24.712109, 12068.176758, 7557.003906)" style="fill: rgb(28, 69, 150); white-space: pre;"/>
      <path d="M 59.937 -20.152 L 63.218 -20.152 L 63.218 0 L 59.937 0 Z M 73.609 0 L 70.136 0 L 66.335 -7.301 Q 66.253 -7.301 66.158 -7.287 Q 66.062 -7.273 65.87 -7.273 Q 65.679 -7.273 65.31 -7.273 Q 64.941 -7.273 64.339 -7.273 L 64.339 -9.68 L 66.199 -9.68 Q 66.8 -9.68 67.402 -9.885 Q 68.003 -10.09 68.495 -10.555 Q 68.988 -11.02 69.288 -11.854 Q 69.589 -12.687 69.589 -13.918 Q 69.589 -14.41 69.452 -15.053 Q 69.316 -15.695 68.892 -16.283 Q 68.468 -16.871 67.702 -17.268 Q 66.937 -17.664 65.679 -17.664 L 64.339 -17.664 L 64.339 -20.152 L 65.734 -20.152 Q 67.019 -20.152 68.277 -19.742 Q 69.534 -19.332 70.533 -18.512 Q 71.531 -17.691 72.146 -16.529 Q 72.761 -15.367 72.761 -13.918 Q 72.761 -11.73 71.749 -10.199 Q 70.738 -8.668 69.015 -7.93 Z" transform="matrix(24.372383, 0, 0, 24.712109, 12068.176758, 7557.003906)" style="fill: rgb(28, 69, 150); white-space: pre;"/>
      <path d="M 78.038 -20.152 L 81.374 -20.152 L 86.788 -7.711 L 86.788 -2.652 L 85.913 -2.652 L 81.374 -13.863 L 81.374 0 L 78.038 0 Z M 93.323 -20.152 L 96.659 -20.152 L 96.659 0 L 93.323 0 L 93.323 -13.863 L 88.811 -2.652 L 87.909 -2.652 L 87.909 -7.656 Z" transform="matrix(24.372383, 0, 0, 24.712109, 12068.176758, 7557.003906)" style="fill: rgb(28, 69, 150); white-space: pre;"/>
      <path d="M 112.245 -10.5 Q 112.245 -8.395 112.519 -6.932 Q 112.792 -5.469 113.312 -4.525 Q 113.831 -3.582 114.556 -3.117 Q 115.28 -2.652 116.183 -2.57 L 116.183 0.137 Q 114.515 0.027 113.161 -0.67 Q 111.808 -1.367 110.878 -2.666 Q 109.948 -3.965 109.429 -5.852 Q 108.909 -7.738 108.909 -10.172 L 108.909 -20.152 L 112.245 -20.152 Z M 124.577 -20.152 L 124.577 -10.172 Q 124.577 -7.738 124.058 -5.852 Q 123.538 -3.965 122.595 -2.666 Q 121.651 -1.367 120.312 -0.67 Q 118.972 0.027 117.304 0.137 L 117.304 -2.57 Q 118.206 -2.68 118.931 -3.131 Q 119.655 -3.582 120.175 -4.512 Q 120.694 -5.441 120.981 -6.904 Q 121.269 -8.367 121.269 -10.5 L 121.269 -20.152 Z" transform="matrix(24.372383, 0, 0, 24.712109, 12068.176758, 7557.003906)" style="fill: rgb(28, 69, 150); white-space: pre;"/>
      <path d="M 144.729 -20.152 L 144.729 0 L 141.448 0 L 141.448 -9.078 L 133.846 -9.078 L 133.846 -11.32 L 141.448 -11.32 L 141.448 -20.152 Z M 129.389 -20.152 L 132.725 -20.152 L 132.725 0 L 129.389 0 Z" transform="matrix(24.372383, 0, 0, 24.712109, 12068.176758, 7557.003906)" style="fill: rgb(28, 69, 150); white-space: pre;"/>
      <path d="M 161.19 -16.27 Q 160.561 -16.98 159.85 -17.336 Q 159.139 -17.691 158.319 -17.746 L 158.319 -20.453 Q 161.381 -20.316 163.459 -18.293 Z M 158.319 -2.57 Q 159.139 -2.652 159.864 -3.008 Q 160.588 -3.363 161.19 -4.047 L 163.459 -2.051 Q 162.42 -1.039 161.135 -0.492 Q 159.85 0.055 158.319 0.137 Z M 149.459 -10.172 Q 149.459 -12.605 150.047 -14.465 Q 150.635 -16.324 151.674 -17.609 Q 152.713 -18.895 154.122 -19.605 Q 155.53 -20.316 157.198 -20.453 L 157.198 -17.719 Q 156.295 -17.582 155.502 -17.104 Q 154.709 -16.625 154.108 -15.723 Q 153.506 -14.82 153.165 -13.439 Q 152.823 -12.059 152.795 -10.172 Q 152.823 -8.258 153.165 -6.891 Q 153.506 -5.523 154.108 -4.594 Q 154.709 -3.664 155.516 -3.172 Q 156.323 -2.68 157.198 -2.57 L 157.198 0.109 Q 155.53 0 154.122 -0.711 Q 152.713 -1.422 151.674 -2.707 Q 150.635 -3.992 150.047 -5.865 Q 149.459 -7.738 149.459 -10.172 Z" transform="matrix(24.372383, 0, 0, 24.712109, 12068.176758, 7557.003906)" style="fill: rgb(28, 69, 150); white-space: pre;"/>
      <path d="M 175.764 -20.152 L 179.045 -20.152 L 179.045 0 L 175.764 0 Z M 181.834 -20.152 Q 184.377 -20.152 186.305 -19.346 Q 188.233 -18.539 189.504 -17.199 Q 190.776 -15.859 191.405 -14.15 Q 192.034 -12.441 192.034 -10.637 Q 192.034 -8.148 191.5 -6.385 Q 190.967 -4.621 190.147 -3.432 Q 189.327 -2.242 188.301 -1.559 Q 187.276 -0.875 186.319 -0.533 Q 185.362 -0.191 184.569 -0.096 Q 183.776 0 183.393 0 L 180.166 0 L 180.166 -2.406 L 182.299 -2.406 Q 185.635 -2.406 187.112 -4.539 Q 188.588 -6.672 188.588 -10.719 Q 188.588 -11.977 188.288 -13.207 Q 187.987 -14.437 187.125 -15.436 Q 186.264 -16.434 184.788 -17.049 Q 183.311 -17.664 180.959 -17.664 L 180.166 -17.664 L 180.166 -20.152 Z" transform="matrix(24.372383, 0, 0, 24.712109, 12068.176758, 7557.003906)" style="fill: rgb(28, 69, 150); white-space: pre;"/>
      <path d="M 196.791 -20.152 L 200.127 -20.152 L 200.127 0 L 196.791 0 Z M 208.549 -9.078 L 201.248 -9.078 L 201.248 -11.32 L 208.549 -11.32 Z M 201.248 -2.488 L 209.397 -2.488 L 209.397 0 L 201.248 0 Z M 209.397 -20.152 L 209.397 -17.664 L 201.248 -17.664 L 201.248 -20.152 Z" transform="matrix(24.372383, 0, 0, 24.712109, 12068.176758, 7557.003906)" style="fill: rgb(28, 69, 150); white-space: pre;"/>
      <path d="M 223.15 -17.035 Q 223.013 -17.09 222.822 -17.227 Q 222.631 -17.363 222.275 -17.486 Q 221.92 -17.609 221.373 -17.691 Q 220.826 -17.773 219.978 -17.719 L 219.978 -20.48 Q 221.181 -20.453 222.426 -20.221 Q 223.67 -19.988 224.435 -19.496 Q 224.271 -19.141 224.053 -18.717 Q 223.834 -18.293 223.642 -17.924 Q 223.451 -17.555 223.314 -17.309 Q 223.178 -17.062 223.15 -17.035 Z M 213.717 -14.848 Q 213.717 -16.051 214.127 -17.008 Q 214.537 -17.965 215.234 -18.689 Q 215.931 -19.414 216.875 -19.838 Q 217.818 -20.262 218.857 -20.398 L 218.857 -17.527 Q 217.982 -17.227 217.408 -16.475 Q 216.834 -15.723 216.834 -14.957 Q 216.834 -13.891 217.408 -13.234 Q 217.982 -12.578 218.857 -12.086 L 218.857 -8.969 Q 217.955 -9.406 217.053 -9.912 Q 216.15 -10.418 215.412 -11.102 Q 214.674 -11.785 214.195 -12.687 Q 213.717 -13.59 213.717 -14.848 Z M 214.154 -3.691 Q 214.537 -3.473 215.125 -3.268 Q 215.713 -3.062 216.342 -2.885 Q 216.971 -2.707 217.599 -2.598 Q 218.228 -2.488 218.775 -2.488 L 218.857 -2.488 L 218.857 0.109 L 218.803 0.109 Q 218.146 0.109 217.449 0.041 Q 216.752 -0.027 216.041 -0.191 Q 215.33 -0.355 214.687 -0.643 Q 214.045 -0.93 213.58 -1.34 Z M 219.978 -11.539 Q 220.881 -11.129 221.824 -10.664 Q 222.767 -10.199 223.533 -9.529 Q 224.299 -8.859 224.791 -7.902 Q 225.283 -6.945 225.283 -5.523 Q 225.283 -4.539 224.914 -3.609 Q 224.545 -2.68 223.875 -1.928 Q 223.205 -1.176 222.221 -0.656 Q 221.236 -0.137 219.978 0.027 L 219.978 -2.598 Q 222.221 -3.145 222.221 -5.578 Q 222.221 -6.535 221.592 -7.164 Q 220.963 -7.793 219.978 -8.34 Z" transform="matrix(24.372383, 0, 0, 24.712109, 12068.176758, 7557.003906)" style="fill: rgb(28, 69, 150); white-space: pre;"/>
      <path d="M 245.216 0 L 241.826 0 L 236.603 -15.094 L 231.326 0 L 227.908 0 L 234.963 -20.125 L 238.216 -20.125 Z M 238.408 -6.398 L 239.201 -4.184 L 233.978 -4.184 L 234.744 -6.398 Z" transform="matrix(24.372383, 0, 0, 24.712109, 12068.176758, 7557.003906)" style="fill: rgb(28, 69, 150); white-space: pre;"/>
    </g>
    <g>
      <path class="fil0" d="M 8105.502 6366.004 L 8763.256 5775.828 L 8034.921 5775.828 L 8034.921 4963.397 L 8378.815 4963.397 L 7736.079 4380.729 L 7120.373 4954.387 L 7435.735 4954.387 L 7435.735 5930.505 C 7437.236 6232.351 7488.295 6369.007 7751.096 6372.011 L 8107.004 6367.506 L 8105.502 6366.004 Z" style="fill: rgb(28, 69, 150);"/>
      <path class="fil0" d="M 10092.279 4385.234 L 9434.525 4975.411 L 10162.859 4975.411 L 10162.859 5787.842 L 9818.965 5787.842 L 10461.702 6370.509 L 11077.407 5796.852 L 10762.046 5796.852 L 10762.046 4820.733 C 10760.544 4518.888 10709.486 4382.231 10446.685 4379.228 L 10090.777 4383.733 L 10092.279 4385.234 Z" style="fill: rgb(28, 69, 150);"/>
      <path class="fil0" d="M 10089.275 6369.007 L 9499.099 5711.254 L 9499.099 6439.588 L 8686.668 6439.588 L 8686.668 6095.694 L 8104 6738.431 L 8677.658 7354.136 L 8677.658 7038.775 L 9653.776 7038.775 C 9955.622 7037.273 10092.279 6986.215 10095.282 6723.413 L 10090.777 6367.506 L 10089.275 6369.007 Z" style="fill: rgb(28, 69, 150);"/>
      <path class="fil0" d="M 8108.506 4382.231 L 8698.682 5039.985 L 8698.682 4311.65 L 9511.113 4311.65 L 9511.113 4655.544 L 10093.78 4012.808 L 9520.123 3397.102 L 9520.123 3712.464 L 8544.005 3712.464 C 8242.159 3713.965 8105.502 3765.024 8102.499 4027.825 L 8107.004 4383.733 L 8108.506 4382.231 Z" style="fill: rgb(28, 69, 150);"/>
    </g>
  </g>
</svg>